<svg width="70" height="70" viewBox="0 0 70 70" fill="none" xmlns="http://www.w3.org/2000/svg">
<path id="Star 1" d="M30.3337 2.32939C32.6888 -0.776462 37.3112 -0.776462 39.6663 2.32939L42.405 5.94106C43.7967 7.77632 46.1116 8.62965 48.3424 8.12973L52.7326 7.14593C56.508 6.29991 60.0489 9.30912 59.8819 13.2215L59.6876 17.7711C59.5889 20.083 60.8206 22.2437 62.8468 23.313L66.8343 25.4175C70.2633 27.2271 71.066 31.8375 68.4549 34.7258L65.4185 38.0846C63.8756 39.7913 63.4479 42.2483 64.3214 44.3866L66.0403 48.5945C67.5186 52.2131 65.2074 56.2674 61.374 56.7802L56.9163 57.3764C54.6512 57.6794 52.7641 59.2831 52.0761 61.4898L50.7223 65.8323C49.558 69.5666 45.2144 71.1678 41.9524 69.0651L38.1592 66.6199C36.2317 65.3773 33.7683 65.3773 31.8408 66.6199L28.0476 69.0651C24.7856 71.1678 20.442 69.5666 19.2777 65.8323L17.9239 61.4898C17.2359 59.2831 15.3488 57.6794 13.0837 57.3764L8.62599 56.7802C4.79264 56.2674 2.48143 52.2131 3.95966 48.5945L5.67864 44.3866C6.55213 42.2483 6.12435 39.7913 4.58145 38.0846L1.54511 34.7258C-1.06598 31.8375 -0.263313 27.2271 3.1657 25.4175L7.15318 23.313C9.1794 22.2437 10.4111 20.083 10.3124 17.7711L10.1181 13.2215C9.95107 9.30912 13.492 6.29991 17.2674 7.14593L21.6576 8.12973C23.8884 8.62965 26.2033 7.77632 27.595 5.94106L30.3337 2.32939Z" fill="#6F45F0"/>
</svg>
